<?xml version="1.0" standalone="no"?>
<!DOCTYPE svg PUBLIC "-//W3C//DTD SVG 20010904//EN"
 "http://www.w3.org/TR/2001/REC-SVG-20010904/DTD/svg10.dtd">
<svg version="1.0" xmlns="http://www.w3.org/2000/svg"
 width="134.000000pt" height="137.000000pt" viewBox="0 0 134.000000 137.000000"
 preserveAspectRatio="xMidYMid meet">

<g transform="translate(0.000000,137.000000) scale(0.100000,-0.100000)"
fill="#000000" stroke="none">
<path d="M676 1350 c-16 -5 -17 -8 -4 -12 16 -7 45 7 32 14 -5 3 -18 2 -28 -2z"/>
<path d="M710 1311 c-22 -7 -25 -12 -23 -49 1 -23 -2 -42 -8 -42 -5 0 -9 6 -9
14 0 8 -13 16 -30 18 -23 3 -30 1 -26 -9 8 -20 -11 -16 -33 8 -18 19 -21 20
-48 5 -32 -18 -26 -21 13 -6 24 9 26 8 21 -10 -3 -11 -1 -18 4 -14 5 3 9 0 9
-6 0 -7 -7 -9 -16 -6 -17 6 -44 -9 -44 -25 0 -5 7 -9 15 -9 8 0 15 -4 15 -10
0 -5 7 -7 15 -4 8 4 15 2 15 -4 0 -5 -9 -12 -20 -15 -12 -3 -20 -13 -19 -24 1
-16 2 -16 6 0 5 20 29 23 36 5 3 -7 6 1 6 19 1 26 4 30 21 26 17 -5 18 -8 6
-37 -7 -17 -16 -29 -21 -28 -4 2 -11 -2 -15 -8 -4 -7 -24 -14 -44 -15 -31 -2
-37 1 -43 24 -4 15 -2 26 5 29 8 2 7 8 -3 19 -8 8 -15 32 -15 54 0 21 -4 39
-10 39 -5 0 -10 -7 -10 -15 0 -8 -4 -15 -9 -15 -5 0 -16 7 -25 15 -19 19 -30
19 -23 0 4 -8 2 -17 -3 -20 -6 -4 -10 -1 -10 4 0 7 -7 7 -20 -1 -23 -15 -27
-38 -5 -38 17 0 20 -16 5 -25 -5 -3 -6 -13 -3 -21 4 -11 0 -15 -13 -12 -14 2
-20 -4 -22 -24 -4 -32 -16 -36 -31 -10 -10 16 -10 16 -11 0 0 -10 -5 -18 -10
-18 -6 0 -9 4 -8 9 4 12 -13 11 -34 -3 -23 -14 -23 -23 -1 -30 10 -3 3 -4 -15
-2 -28 2 -33 -1 -39 -23 -3 -14 -11 -29 -16 -33 -6 -3 -1 -17 12 -33 25 -33
27 -45 6 -45 -8 0 -15 6 -15 13 0 18 -35 19 -68 1 -15 -7 -37 -14 -49 -14 -13
0 -23 -4 -23 -10 0 -5 3 -10 8 -10 4 0 12 -10 17 -22 6 -13 17 -23 25 -23 8 0
20 -4 26 -8 7 -4 17 0 24 8 7 8 17 12 23 8 7 -4 5 -9 -5 -12 -15 -5 -15 -8 -1
-26 14 -18 15 -18 9 -1 -5 15 -2 17 14 13 13 -3 21 1 26 15 5 16 8 18 15 7 5
-8 9 -9 9 -3 0 21 49 22 87 2 47 -25 58 -38 60 -65 2 -20 -3 -23 -32 -20 -35
2 -51 19 -38 40 4 7 -1 6 -10 -2 -14 -11 -21 -11 -42 3 -14 9 -25 13 -25 8 0
-14 23 -32 42 -32 20 0 44 -36 25 -37 -7 -1 -27 -6 -45 -11 -30 -10 -34 -8
-49 16 -9 15 -18 29 -20 31 -1 2 -10 -2 -20 -10 -11 -9 -14 -10 -9 -1 4 8 1
12 -10 12 -11 0 -15 6 -11 19 8 33 -37 39 -66 9 -21 -21 -11 -29 20 -17 31 12
30 12 36 -11 5 -20 -8 -39 -15 -20 -2 6 -12 4 -26 -6 -25 -17 -21 -34 8 -34
10 0 30 -4 45 -10 22 -9 24 -12 13 -30 -14 -22 -30 -27 -23 -7 6 15 -39 37
-76 37 -29 0 -43 -27 -28 -51 5 -8 9 -10 9 -5 0 5 7 3 15 -4 9 -7 13 -21 10
-31 -5 -15 -1 -19 17 -20 50 -2 70 -6 77 -18 4 -6 21 -13 37 -14 23 -2 30 3
32 19 3 23 28 35 52 25 23 -9 18 -36 -7 -39 -13 -2 -23 -10 -23 -18 0 -8 -10
-14 -22 -14 -22 0 -63 -19 -43 -20 6 0 3 -5 -5 -10 -13 -9 -12 -12 4 -25 26
-20 12 -31 -20 -17 -14 7 -23 8 -20 3 4 -5 0 -11 -6 -14 -10 -3 -11 -9 -1 -26
16 -25 16 -34 3 -26 -5 3 -10 2 -10 -4 0 -5 6 -12 13 -14 9 -4 9 -8 -1 -15
-11 -8 -9 -14 9 -31 12 -11 28 -21 35 -21 19 0 45 -45 32 -58 -7 -7 1 -15 26
-27 20 -10 40 -14 44 -10 4 4 2 10 -5 12 -9 3 -9 8 -2 16 5 7 15 20 22 30 12
17 14 17 36 -2 13 -12 19 -21 14 -21 -17 0 -24 -29 -13 -50 6 -11 6 -21 1 -24
-5 -4 -11 0 -14 6 -3 10 -9 8 -24 -5 -11 -9 -25 -17 -32 -17 -7 0 -9 -5 -6
-10 4 -7 12 -7 25 0 25 14 27 13 33 -10 6 -22 -9 -38 -15 -18 -3 9 -10 8 -22
-5 -24 -24 -17 -28 49 -33 51 -4 57 -2 62 17 3 11 9 17 12 12 12 -17 57 -31
73 -22 12 7 18 4 23 -11 5 -16 9 -18 25 -8 16 10 22 9 38 -10 21 -24 48 -29
55 -9 3 9 8 9 21 -2 9 -8 19 -11 22 -8 3 3 -4 10 -15 17 -12 6 -21 15 -21 20
0 15 33 -1 52 -24 l17 -21 -2 23 c-1 12 -6 22 -12 22 -5 0 -2 5 8 11 19 11 40
3 34 -14 -4 -14 41 -57 59 -57 8 0 14 7 14 15 0 8 -5 15 -11 15 -20 0 -77 67
-69 81 7 10 11 10 24 -1 9 -7 19 -10 23 -6 3 3 17 -1 30 -10 19 -12 27 -13 39
-3 11 9 17 5 29 -22 8 -19 14 -29 15 -22 0 16 40 12 40 -4 0 -7 5 -13 10 -13
6 0 10 3 10 8 0 4 15 15 32 25 30 17 31 20 16 31 -22 16 -11 29 13 15 10 -5
46 -12 79 -15 l60 -5 -1 38 c-1 21 -3 30 -6 21 -2 -10 -11 -18 -19 -18 -8 0
-12 5 -9 10 3 6 1 10 -5 10 -6 0 -14 8 -17 17 -4 9 -20 28 -36 43 -27 24 -28
27 -13 42 19 19 21 33 4 22 -8 -5 -9 -2 -5 10 6 15 3 17 -18 12 -27 -7 -64 17
-46 29 6 3 7 13 4 22 -5 13 -3 13 20 -2 15 -9 27 -22 27 -29 0 -6 4 -4 10 4 8
12 10 12 15 -2 8 -19 64 -35 74 -21 9 14 61 25 61 13 0 -5 5 -10 10 -10 6 0
10 6 10 14 0 19 19 31 31 19 10 -10 -24 -53 -42 -53 -6 0 -9 -6 -6 -12 2 -7
12 -12 22 -10 11 2 15 -2 12 -10 -4 -14 -19 -15 -53 -4 -16 5 -25 0 -39 -21
-10 -16 -12 -23 -5 -16 7 6 19 9 26 6 8 -3 27 0 43 5 20 7 32 7 40 -1 8 -8 14
-8 23 1 7 7 8 12 2 12 -6 0 -10 16 -10 35 0 34 19 49 29 23 3 -8 8 -6 13 7 4
11 14 25 21 30 23 17 -6 44 -49 47 -36 3 -56 28 -23 28 8 0 15 4 15 10 0 5 -6
7 -14 4 -8 -3 -17 -1 -20 5 -4 6 4 13 16 16 18 5 24 13 23 33 0 20 4 26 18 24
18 -3 22 14 8 37 -5 8 -11 9 -15 3 -3 -5 -17 -7 -31 -4 -20 3 -23 7 -14 18 13
16 55 19 64 4 3 -5 12 -10 18 -10 7 0 6 4 -3 10 -17 10 -10 20 17 24 26 4 29
36 4 43 -24 6 -29 43 -6 43 18 0 18 5 4 31 -8 16 -7 25 5 38 24 27 18 110 -7
94 -7 -4 -8 0 -4 11 5 13 2 16 -11 14 -9 -1 -22 1 -29 5 -6 4 -14 3 -18 -2
-11 -18 -35 1 -35 27 0 14 -3 23 -6 19 -4 -3 -20 1 -36 9 -32 17 -62 5 -52
-20 3 -8 -3 -15 -13 -18 -27 -7 -43 1 -36 19 5 12 3 14 -8 8 -8 -5 -11 -5 -6
1 9 9 13 10 43 13 8 0 12 5 9 11 -3 5 7 16 22 22 41 18 56 40 38 54 -22 16
-18 27 6 21 43 -11 65 17 34 43 -13 11 -13 15 -3 21 9 6 5 9 -12 10 -14 1 -28
1 -32 0 -5 0 -8 10 -8 24 0 33 -23 32 -49 -1 -11 -14 -25 -23 -31 -19 -5 3
-10 -1 -10 -10 0 -33 -25 -8 -28 28 -2 20 -7 37 -13 37 -5 0 -8 -3 -8 -7 3
-20 -3 -23 -21 -13 -11 6 -20 20 -20 31 0 11 -10 23 -22 28 -24 9 -16 16 25
23 15 3 16 6 5 21 -11 14 -19 15 -47 7 -30 -8 -33 -7 -28 9 4 15 -2 20 -27 25
-56 11 -130 14 -156 7z m200 -81 c0 -5 -4 -10 -10 -10 -5 0 -10 5 -10 10 0 6
5 10 10 10 6 0 10 -4 10 -10z m-165 -10 c-3 -5 -11 -10 -16 -10 -6 0 -7 5 -4
10 3 6 11 10 16 10 6 0 7 -4 4 -10z m143 -2 c15 -15 16 -32 2 -23 -5 3 -10 1
-10 -5 0 -7 12 -9 35 -4 41 7 47 -7 10 -24 -32 -15 -106 11 -88 29 6 6 9 18 6
25 -6 18 28 19 45 2z m-410 -83 c4 -31 -16 -49 -35 -33 -7 6 -13 7 -13 2 0
-11 -20 18 -20 29 0 5 5 5 10 2 17 -10 11 7 -7 20 -28 21 -7 36 30 20 23 -9
33 -21 35 -40z m184 18 c-5 -10 -7 -23 -5 -29 2 -6 -6 -14 -17 -17 -16 -4 -20
-2 -16 10 3 8 6 18 6 23 0 12 31 42 37 36 3 -2 0 -13 -5 -23z m111 10 c3 6 4
2 4 -10 -1 -27 -27 -31 -28 -5 0 11 -2 12 -6 4 -6 -17 16 -44 30 -35 6 4 8 0
4 -10 -7 -18 11 -36 43 -42 29 -6 39 -16 21 -23 -10 -3 -10 -6 -1 -12 6 -4 12
-15 14 -25 1 -9 13 -23 27 -30 21 -12 22 -14 6 -20 -9 -4 -23 -2 -30 4 -10 8
-19 6 -34 -4 -16 -11 -28 -13 -47 -5 -14 5 -26 6 -26 1 0 -5 -9 -7 -20 -4 -14
4 -22 -1 -29 -18 -9 -23 -10 -23 -11 6 l-2 30 -9 -26 c-12 -33 -49 -46 -49
-18 0 10 -4 19 -10 19 -15 0 -12 -58 3 -63 19 -7 3 -18 -29 -20 -26 -2 -29 2
-32 31 -2 17 -7 32 -12 32 -4 0 -7 6 -6 13 3 25 19 39 37 34 10 -3 22 -1 25 5
3 5 17 7 31 3 16 -4 22 -2 18 5 -3 5 -13 10 -21 10 -8 0 -14 6 -14 14 0 8 -2
20 -5 28 -4 9 4 14 23 15 22 1 33 -4 42 -23 7 -13 17 -24 20 -24 17 0 28 27
23 53 -4 22 -10 27 -24 24 -25 -7 -32 7 -24 49 8 43 39 59 72 38 16 -10 23
-11 26 -1z m77 -13 c0 -5 -5 -10 -11 -10 -5 0 -7 5 -4 10 3 6 8 10 11 10 2 0
4 -4 4 -10z m100 -49 c0 -17 -18 -21 -24 -6 -3 9 0 15 9 15 8 0 15 -4 15 -9z
m24 -67 c25 -9 19 -24 -9 -24 -24 0 -32 10 -18 23 8 8 8 8 27 1z m-764 -14 c0
-5 -4 -10 -10 -10 -5 0 -10 5 -10 10 0 6 5 10 10 10 6 0 10 -4 10 -10z m704
-15 c-4 -8 -12 -15 -20 -15 -8 0 -11 6 -8 15 4 8 12 15 20 15 8 0 11 -6 8 -15z
m-534 -5 c0 -5 -4 -10 -10 -10 -5 0 -10 5 -10 10 0 6 5 10 10 10 6 0 10 -4 10
-10z m740 6 c0 -3 -4 -8 -10 -11 -5 -3 -10 -1 -10 4 0 6 5 11 10 11 6 0 10 -2
10 -4z m-150 -22 c0 -2 -7 -4 -15 -4 -8 0 -15 4 -15 10 0 5 7 7 15 4 8 -4 15
-8 15 -10z m-730 -14 c0 -5 -2 -10 -4 -10 -3 0 -8 5 -11 10 -3 6 -1 10 4 10 6
0 11 -4 11 -10z m50 -24 c0 -21 20 -30 33 -17 14 14 54 14 62 1 4 -6 10 -8 15
-5 12 8 21 -10 14 -29 -8 -21 -33 -20 -56 1 -10 9 -18 11 -18 5 0 -6 14 -21
30 -34 17 -12 30 -28 30 -35 0 -7 5 -13 10 -13 6 0 10 5 10 10 0 6 7 10 15 10
21 0 19 -9 -11 -37 -25 -23 -26 -23 -31 -3 -3 11 -11 20 -17 20 -20 0 -67 55
-61 71 4 10 -4 14 -27 15 -18 1 -45 7 -60 13 -32 12 -39 37 -8 27 65 -20 64
-20 57 -3 -4 10 -2 17 3 17 6 0 10 -6 10 -14z m235 -14 c0 -11 3 -24 7 -27 6
-7 -1 -45 -9 -45 -12 0 -29 27 -25 39 3 8 0 11 -7 7 -6 -4 -11 -1 -11 7 0 10
7 13 20 10 23 -6 26 6 8 26 -11 11 -10 13 2 9 8 -3 15 -14 15 -26z m435 4 c0
-3 -4 -8 -10 -11 -5 -3 -10 -1 -10 4 0 6 5 11 10 11 6 0 10 -2 10 -4z m187
-20 c0 -8 -6 -12 -14 -9 -7 3 -10 9 -7 14 8 14 21 11 21 -5z m-481 -42 c-5
-14 -9 -15 -19 -5 -9 9 -9 14 3 21 18 11 24 6 16 -16z m84 11 c-14 -17 -30
-20 -30 -6 0 5 8 12 18 14 9 3 19 5 21 6 2 0 -2 -6 -9 -14z m-640 -5 c0 -5 -5
-10 -11 -10 -5 0 -7 5 -4 10 3 6 8 10 11 10 2 0 4 -4 4 -10z m115 0 c3 -5 1
-10 -4 -10 -6 0 -11 5 -11 10 0 6 2 10 4 10 3 0 8 -4 11 -10z m662 -6 c-3 -3
-12 -4 -19 -1 -8 3 -5 6 6 6 11 1 17 -2 13 -5z m-321 -50 c-3 -9 -6 -18 -6
-20 0 -2 -7 -4 -15 -4 -18 0 -19 12 -3 28 17 17 31 15 24 -4z m44 -24 c0 -5
-4 -10 -10 -10 -5 0 -10 5 -10 10 0 6 5 10 10 10 6 0 10 -4 10 -10z m-150 -18
c0 -11 -7 -18 -20 -18 -18 0 -18 2 -3 18 9 10 18 18 20 18 1 0 3 -8 3 -18z
m822 -4 c-15 -15 -94 -18 -89 -3 2 5 20 10 41 11 20 1 39 4 43 8 3 3 9 4 12 1
2 -3 -1 -11 -7 -17z m-166 -12 c28 -21 12 -29 -25 -13 -17 7 -28 16 -24 20 10
11 27 8 49 -7z m-514 -38 c-34 -10 -39 -3 -17 22 17 19 19 19 31 2 11 -15 9
-18 -14 -24z m382 -9 l-19 -21 36 21 c34 20 37 20 50 4 10 -11 10 -14 1 -9 -7
4 -14 1 -18 -7 -4 -10 -17 -14 -41 -12 -44 5 -48 9 -28 29 24 24 41 19 19 -5z
m-616 -15 c-9 -9 -21 -13 -27 -9 -16 10 -3 25 22 25 20 0 20 -1 5 -16z m742 6
c0 -5 -7 -10 -15 -10 -8 0 -15 5 -15 10 0 6 7 10 15 10 8 0 15 -4 15 -10z
m-75 -40 c15 -6 11 -7 -17 -7 -21 1 -38 5 -38 9 0 10 29 9 55 -2z m-370 -30
c3 -5 2 -10 -4 -10 -5 0 -13 5 -16 10 -3 6 -2 10 4 10 5 0 13 -4 16 -10z m158
-2 c2 -7 -3 -18 -12 -25 -14 -11 -14 -12 2 -13 9 0 17 -6 17 -14 0 -22 -20
-30 -20 -9 -1 17 -1 17 -14 1 -7 -10 -23 -18 -36 -18 -23 0 -23 0 4 25 15 14
24 25 21 25 -3 0 -1 9 5 20 12 23 26 26 33 8z m144 -2 c-4 -10 -1 -13 9 -9 7
3 14 0 14 -7 0 -9 4 -9 17 1 9 8 14 9 10 3 -4 -7 0 -15 9 -18 8 -3 13 -10 9
-15 -3 -6 -12 -8 -20 -4 -8 3 -15 0 -15 -6 0 -6 -7 -8 -17 -4 -11 5 -14 3 -9
-6 6 -8 -2 -7 -23 3 -21 11 -31 13 -31 5 0 -8 -4 -8 -14 0 -13 11 -12 15 5 32
10 10 24 19 29 19 6 0 10 5 10 10 0 6 5 10 11 10 6 0 9 -7 6 -14z m-510 -2
c-3 -3 -12 -4 -19 -1 -8 3 -5 6 6 6 11 1 17 -2 13 -5z m-259 -36 c-6 -18 -28
-21 -28 -4 0 9 7 16 16 16 9 0 14 -5 12 -12z m897 -27 c-3 -6 -11 -11 -16 -11
-5 0 -4 6 3 14 14 16 24 13 13 -3z m35 9 c0 -5 -4 -10 -10 -10 -5 0 -10 5 -10
10 0 6 5 10 10 10 6 0 10 -4 10 -10z m-840 -20 c0 -5 -5 -10 -11 -10 -5 0 -7
5 -4 10 3 6 8 10 11 10 2 0 4 -4 4 -10z m877 4 c-3 -3 -12 -4 -19 -1 -8 3 -5
6 6 6 11 1 17 -2 13 -5z m-692 -24 c10 -11 16 -20 13 -20 -3 0 -13 9 -23 20
-10 11 -16 20 -13 20 3 0 13 -9 23 -20z m620 0 c3 -5 -1 -10 -10 -10 -9 0 -13
5 -10 10 3 6 8 10 10 10 2 0 7 -4 10 -10z m-445 -20 c0 -5 -2 -10 -4 -10 -3 0
-8 5 -11 10 -3 6 -1 10 4 10 6 0 11 -4 11 -10z m-430 -10 c0 -5 -5 -10 -11
-10 -5 0 -7 5 -4 10 3 6 8 10 11 10 2 0 4 -4 4 -10z m940 0 c0 -5 -10 -10 -22
-10 -19 0 -20 2 -8 10 19 13 30 13 30 0z m-25 -15 c34 -3 40 -6 40 -26 0 -12
6 -24 12 -26 7 -3 9 -11 7 -18 -5 -11 -10 -12 -24 -3 -10 7 -16 16 -13 22 4 5
-6 7 -25 3 -25 -5 -85 6 -100 19 -10 7 35 42 48 37 8 -3 33 -7 55 -8z m-737
-85 c11 -17 10 -20 -7 -20 -19 0 -35 23 -24 34 10 10 18 7 31 -14z m417 -10
c-6 -9 -9 -9 -16 1 -10 17 0 34 13 21 6 -6 7 -16 3 -22z m209 14 c4 -9 2 -22
-4 -29 -9 -11 -17 -10 -40 3 -21 12 -26 20 -18 29 15 18 55 16 62 -3z m-354
-21 c0 -8 -4 -12 -9 -8 -5 3 -12 1 -16 -5 -3 -5 1 -10 9 -10 9 0 16 -4 16 -10
0 -9 -14 -14 -32 -11 -5 0 -8 -3 -8 -9 0 -5 6 -11 13 -11 17 -2 20 -1 39 6 13
5 17 2 15 -13 0 -11 -6 -18 -12 -16 -6 3 -20 -4 -30 -16 -24 -27 -33 -25 -46
7 -16 44 -14 94 5 108 21 16 56 8 56 -12z m210 6 c0 -5 -9 -9 -20 -9 -22 0
-27 16 -7 23 15 5 27 -1 27 -14z m17 -1 c-3 -8 -6 -5 -6 6 -1 11 2 17 5 13 3
-3 4 -12 1 -19z m-568 -11 c0 -12 -3 -16 -6 -9 -7 17 -18 15 -39 -5 -15 -16
-15 -17 2 -24 15 -6 14 -8 -8 -8 -16 -1 -28 3 -28 8 0 5 -3 16 -6 24 -4 12 0
14 17 10 17 -5 21 -3 17 9 -5 11 1 15 23 16 24 1 29 -3 28 -21z m241 14 c0 -5
-6 -14 -14 -20 -12 -10 -13 -8 -9 8 5 21 23 30 23 12z m600 -1 c0 -5 -4 -10
-10 -10 -5 0 -10 5 -10 10 0 6 5 10 10 10 6 0 10 -4 10 -10z m-690 -30 c0 -5
-5 -10 -11 -10 -5 0 -7 5 -4 10 3 6 8 10 11 10 2 0 4 -4 4 -10z m280 0 c0 -5
7 -10 15 -10 8 0 15 -7 15 -15 0 -21 -26 -19 -35 3 -6 16 -7 16 -16 -1 -6 -9
-7 -23 -4 -30 4 -6 -3 -1 -14 12 -32 36 -30 38 32 50 4 0 7 -3 7 -9z m200 -62
c0 -14 -19 -9 -38 13 -16 16 -20 17 -25 5 -3 -8 1 -17 9 -20 9 -3 13 -10 9
-15 -7 -13 -35 -3 -35 12 0 6 -10 21 -22 34 -23 25 -18 44 7 23 13 -11 14 -10
8 6 -5 13 5 9 40 -16 26 -18 47 -37 47 -42z m-397 30 c-10 -18 -22 -36 -27
-39 -4 -4 -2 -9 5 -12 11 -3 11 -7 2 -17 -17 -18 -49 -5 -34 14 6 7 8 22 4 31
-4 13 -3 16 5 11 7 -4 12 -1 12 8 0 14 25 35 43 36 5 0 0 -15 -10 -32z m257
12 c0 -11 -4 -20 -10 -20 -5 0 -10 9 -10 20 0 11 5 20 10 20 6 0 10 -9 10 -20z
m-385 0 c-3 -5 -11 -10 -16 -10 -6 0 -7 5 -4 10 3 6 11 10 16 10 6 0 7 -4 4
-10z m39 -31 c-3 -5 -10 -7 -15 -3 -5 3 -7 10 -3 15 3 5 10 7 15 3 5 -3 7 -10
3 -15z m-203 2 c7 11 9 9 9 -8 0 -25 -16 -39 -23 -21 -3 8 -6 6 -6 -4 -2 -31
-18 -19 -19 13 -1 26 1 29 14 18 13 -10 17 -10 25 2z m109 -11 c0 -5 -2 -10
-4 -10 -3 0 -8 5 -11 10 -3 6 -1 10 4 10 6 0 11 -4 11 -10z m477 -9 c-1 -12
-7 -17 -19 -13 -19 5 -23 14 -11 25 13 14 32 7 30 -12z m-486 -34 c-13 -13
-26 -3 -16 12 3 6 11 8 17 5 6 -4 6 -10 -1 -17z m234 3 c3 -5 1 -10 -4 -10 -6
0 -11 5 -11 10 0 6 2 10 4 10 3 0 8 -4 11 -10z m215 -25 c21 13 31 -7 14 -26
-17 -19 -18 -19 -41 3 -13 12 -23 27 -23 34 0 21 25 22 32 2 4 -11 12 -16 18
-13z m-60 -5 c0 -18 -3 -19 -20 -10 -11 6 -20 15 -20 20 0 6 9 10 20 10 13 0
20 -7 20 -20z m171 -3 c-10 -9 -11 -8 -5 6 3 10 9 15 12 12 3 -3 0 -11 -7 -18z
m-591 -1 c0 -3 -4 -8 -10 -11 -5 -3 -10 -1 -10 4 0 6 5 11 10 11 6 0 10 -2 10
-4z m565 -6 c7 -12 -2 -12 -30 0 -19 8 -19 9 2 9 12 1 25 -3 28 -9z m-415 -17
c0 -10 -4 -14 -8 -8 -4 6 -11 13 -16 18 -5 4 -2 7 7 7 10 0 17 -8 17 -17z
m515 -3 c3 -5 2 -10 -4 -10 -5 0 -13 5 -16 10 -3 6 -2 10 4 10 5 0 13 -4 16
-10z m-645 -10 c0 -5 -5 -10 -11 -10 -5 0 -7 5 -4 10 3 6 8 10 11 10 2 0 4 -4
4 -10z m694 -22 c5 -21 -10 -34 -17 -16 -3 10 -10 8 -25 -5 -13 -12 -22 -15
-27 -8 -9 15 -55 14 -56 -1 0 -7 -5 -2 -10 11 -5 13 -7 26 -4 29 3 3 5 0 5 -6
0 -16 27 -15 33 1 3 7 23 12 50 12 35 0 47 -4 51 -17z m-678 -15 c-10 -10 -19
5 -10 18 6 11 8 11 12 0 2 -7 1 -15 -2 -18z m239 -4 c-8 -12 -35 -11 -35 2 0
5 5 7 10 4 6 -3 10 -1 10 5 0 6 5 8 10 5 6 -4 8 -11 5 -16z m-255 -19 c0 -5
-2 -10 -4 -10 -3 0 -8 5 -11 10 -3 6 -1 10 4 10 6 0 11 -4 11 -10z"/>
<path d="M940 611 c0 -14 18 -23 31 -15 8 4 7 9 -2 15 -18 11 -29 11 -29 0z"/>
<path d="M918 1303 c7 -3 16 -2 19 1 4 3 -2 6 -13 5 -11 0 -14 -3 -6 -6z"/>
<path d="M375 1270 c-3 -5 3 -10 15 -10 12 0 18 5 15 10 -3 6 -10 10 -15 10
-5 0 -12 -4 -15 -10z"/>
<path d="M590 1269 c0 -5 5 -7 10 -4 6 3 10 8 10 11 0 2 -4 4 -10 4 -5 0 -10
-5 -10 -11z"/>
<path d="M345 1250 c3 -5 8 -10 11 -10 2 0 4 5 4 10 0 6 -5 10 -11 10 -5 0 -7
-4 -4 -10z"/>
<path d="M110 1013 c0 -7 4 -13 9 -13 5 0 16 -3 24 -6 8 -3 17 1 20 9 4 11 -3
16 -24 19 -20 3 -29 0 -29 -9z"/>
<path d="M103 546 c10 -8 15 -20 11 -30 -5 -12 -2 -15 9 -10 13 5 14 10 5 30
-6 13 -18 24 -27 24 -14 -1 -14 -3 2 -14z"/>
<path d="M70 390 c20 -13 33 -13 25 0 -3 6 -14 10 -23 10 -15 0 -15 -2 -2 -10z"/>
<path d="M1050 280 c0 -5 7 -10 16 -10 8 0 12 5 9 10 -3 6 -10 10 -16 10 -5 0
-9 -4 -9 -10z"/>
<path d="M943 57 c-13 -5 -23 -14 -23 -19 0 -11 14 -10 26 1 5 5 18 11 29 13
15 3 17 5 5 9 -8 4 -25 2 -37 -4z"/>
</g>
</svg>
